<svg xmlns="http://www.w3.org/2000/svg" version="1.1" xmlns:xlink="http://www.w3.org/1999/xlink" xmlns:svgjs="http://svgjs.dev/svgjs" width="1440" height="560" preserveAspectRatio="none" viewBox="0 0 1440 560"><g mask="url(&quot;#SvgjsMask1515&quot;)" fill="none"><rect width="1440" height="560" x="0" y="0" fill="#0e2a47"></rect><path d="M111.79 331.22L176.75 368.72L176.75 443.72L111.79 481.22L46.84 443.72L46.84 368.72zM111.79 556.22L176.75 593.72L176.75 668.72L111.79 706.22L46.84 668.72L46.84 593.72zM241.7 331.22L306.65 368.72L306.65 443.72L241.7 481.22L176.75 443.72L176.75 368.72zM501.52 106.22L566.47 143.72L566.47 218.72L501.52 256.22L436.56 218.72L436.56 143.72zM501.52 331.22L566.47 368.72L566.47 443.72L501.52 481.22L436.56 443.72L436.56 368.72zM631.42 331.22L696.38 368.72L696.38 443.72L631.42 481.22L566.47 443.72L566.47 368.72zM761.33 106.22L826.29 143.72L826.29 218.72L761.33 256.22L696.38 218.72L696.38 143.72zM696.38 218.72L761.33 256.22L761.33 331.22L696.38 368.72L631.42 331.22L631.42 256.22zM826.28 -6.28L891.24 31.22L891.24 106.22L826.28 143.72L761.33 106.22L761.33 31.22zM891.24 331.22L956.19 368.72L956.19 443.72L891.24 481.22L826.28 443.72L826.28 368.72zM1086.1 443.72L1151.05 481.22L1151.05 556.22L1086.1 593.72L1021.15 556.22L1021.15 481.22zM1280.96 106.22L1345.91 143.72L1345.91 218.72L1280.96 256.22L1216.01 218.72L1216.01 143.72zM1345.91 -6.28L1410.87 31.22L1410.87 106.22L1345.91 143.72L1280.96 106.22L1280.96 31.22z" stroke="url(&quot;#SvgjsLinearGradient1516&quot;)" stroke-width="2"></path><path d="M104.29 331.22 a7.5 7.5 0 1 0 15 0 a7.5 7.5 0 1 0 -15 0zM169.25 368.72 a7.5 7.5 0 1 0 15 0 a7.5 7.5 0 1 0 -15 0zM169.25 443.72 a7.5 7.5 0 1 0 15 0 a7.5 7.5 0 1 0 -15 0zM104.29 481.22 a7.5 7.5 0 1 0 15 0 a7.5 7.5 0 1 0 -15 0zM39.34 443.72 a7.5 7.5 0 1 0 15 0 a7.5 7.5 0 1 0 -15 0zM39.34 368.72 a7.5 7.5 0 1 0 15 0 a7.5 7.5 0 1 0 -15 0zM104.29 556.22 a7.5 7.5 0 1 0 15 0 a7.5 7.5 0 1 0 -15 0zM169.25 593.72 a7.5 7.5 0 1 0 15 0 a7.5 7.5 0 1 0 -15 0zM169.25 668.72 a7.5 7.5 0 1 0 15 0 a7.5 7.5 0 1 0 -15 0zM104.29 706.22 a7.5 7.5 0 1 0 15 0 a7.5 7.5 0 1 0 -15 0zM39.34 668.72 a7.5 7.5 0 1 0 15 0 a7.5 7.5 0 1 0 -15 0zM39.34 593.72 a7.5 7.5 0 1 0 15 0 a7.5 7.5 0 1 0 -15 0zM234.2 331.22 a7.5 7.5 0 1 0 15 0 a7.5 7.5 0 1 0 -15 0zM299.15 368.72 a7.5 7.5 0 1 0 15 0 a7.5 7.5 0 1 0 -15 0zM299.15 443.72 a7.5 7.5 0 1 0 15 0 a7.5 7.5 0 1 0 -15 0zM234.2 481.22 a7.5 7.5 0 1 0 15 0 a7.5 7.5 0 1 0 -15 0zM494.02 106.22 a7.5 7.5 0 1 0 15 0 a7.5 7.5 0 1 0 -15 0zM558.97 143.72 a7.5 7.5 0 1 0 15 0 a7.5 7.5 0 1 0 -15 0zM558.97 218.72 a7.5 7.5 0 1 0 15 0 a7.5 7.5 0 1 0 -15 0zM494.02 256.22 a7.5 7.5 0 1 0 15 0 a7.5 7.5 0 1 0 -15 0zM429.06 218.72 a7.5 7.5 0 1 0 15 0 a7.5 7.5 0 1 0 -15 0zM429.06 143.72 a7.5 7.5 0 1 0 15 0 a7.5 7.5 0 1 0 -15 0zM494.02 331.22 a7.5 7.5 0 1 0 15 0 a7.5 7.5 0 1 0 -15 0zM558.97 368.72 a7.5 7.5 0 1 0 15 0 a7.5 7.5 0 1 0 -15 0zM558.97 443.72 a7.5 7.5 0 1 0 15 0 a7.5 7.5 0 1 0 -15 0zM494.02 481.22 a7.5 7.5 0 1 0 15 0 a7.5 7.5 0 1 0 -15 0zM429.06 443.72 a7.5 7.5 0 1 0 15 0 a7.5 7.5 0 1 0 -15 0zM429.06 368.72 a7.5 7.5 0 1 0 15 0 a7.5 7.5 0 1 0 -15 0zM623.92 331.22 a7.5 7.5 0 1 0 15 0 a7.5 7.5 0 1 0 -15 0zM688.88 368.72 a7.5 7.5 0 1 0 15 0 a7.5 7.5 0 1 0 -15 0zM688.88 443.72 a7.5 7.5 0 1 0 15 0 a7.5 7.5 0 1 0 -15 0zM623.92 481.22 a7.5 7.5 0 1 0 15 0 a7.5 7.5 0 1 0 -15 0zM753.83 106.22 a7.5 7.5 0 1 0 15 0 a7.5 7.5 0 1 0 -15 0zM818.79 143.72 a7.5 7.5 0 1 0 15 0 a7.5 7.5 0 1 0 -15 0zM818.79 218.72 a7.5 7.5 0 1 0 15 0 a7.5 7.5 0 1 0 -15 0zM753.83 256.22 a7.5 7.5 0 1 0 15 0 a7.5 7.5 0 1 0 -15 0zM688.88 218.72 a7.5 7.5 0 1 0 15 0 a7.5 7.5 0 1 0 -15 0zM688.88 143.72 a7.5 7.5 0 1 0 15 0 a7.5 7.5 0 1 0 -15 0zM753.83 331.22 a7.5 7.5 0 1 0 15 0 a7.5 7.5 0 1 0 -15 0zM623.92 256.22 a7.5 7.5 0 1 0 15 0 a7.5 7.5 0 1 0 -15 0zM818.78 -6.28 a7.5 7.5 0 1 0 15 0 a7.5 7.5 0 1 0 -15 0zM883.74 31.22 a7.5 7.5 0 1 0 15 0 a7.5 7.5 0 1 0 -15 0zM883.74 106.22 a7.5 7.5 0 1 0 15 0 a7.5 7.5 0 1 0 -15 0zM818.78 143.72 a7.5 7.5 0 1 0 15 0 a7.5 7.5 0 1 0 -15 0zM753.83 31.22 a7.5 7.5 0 1 0 15 0 a7.5 7.5 0 1 0 -15 0zM883.74 331.22 a7.5 7.5 0 1 0 15 0 a7.5 7.5 0 1 0 -15 0zM948.69 368.72 a7.5 7.5 0 1 0 15 0 a7.5 7.5 0 1 0 -15 0zM948.69 443.72 a7.5 7.5 0 1 0 15 0 a7.5 7.5 0 1 0 -15 0zM883.74 481.22 a7.5 7.5 0 1 0 15 0 a7.5 7.5 0 1 0 -15 0zM818.78 443.72 a7.5 7.5 0 1 0 15 0 a7.5 7.5 0 1 0 -15 0zM818.78 368.72 a7.5 7.5 0 1 0 15 0 a7.5 7.5 0 1 0 -15 0zM1078.6 443.72 a7.5 7.5 0 1 0 15 0 a7.5 7.5 0 1 0 -15 0zM1143.55 481.22 a7.5 7.5 0 1 0 15 0 a7.5 7.5 0 1 0 -15 0zM1143.55 556.22 a7.5 7.5 0 1 0 15 0 a7.5 7.5 0 1 0 -15 0zM1078.6 593.72 a7.5 7.5 0 1 0 15 0 a7.5 7.5 0 1 0 -15 0zM1013.65 556.22 a7.5 7.5 0 1 0 15 0 a7.5 7.5 0 1 0 -15 0zM1013.65 481.22 a7.5 7.5 0 1 0 15 0 a7.5 7.5 0 1 0 -15 0zM1273.46 106.22 a7.5 7.5 0 1 0 15 0 a7.5 7.5 0 1 0 -15 0zM1338.41 143.72 a7.5 7.5 0 1 0 15 0 a7.5 7.5 0 1 0 -15 0zM1338.41 218.72 a7.5 7.5 0 1 0 15 0 a7.5 7.5 0 1 0 -15 0zM1273.46 256.22 a7.5 7.5 0 1 0 15 0 a7.5 7.5 0 1 0 -15 0zM1208.51 218.72 a7.5 7.5 0 1 0 15 0 a7.5 7.5 0 1 0 -15 0zM1208.51 143.72 a7.5 7.5 0 1 0 15 0 a7.5 7.5 0 1 0 -15 0zM1338.41 -6.28 a7.5 7.5 0 1 0 15 0 a7.5 7.5 0 1 0 -15 0zM1403.37 31.22 a7.5 7.5 0 1 0 15 0 a7.5 7.5 0 1 0 -15 0zM1403.37 106.22 a7.5 7.5 0 1 0 15 0 a7.5 7.5 0 1 0 -15 0zM1273.46 31.22 a7.5 7.5 0 1 0 15 0 a7.5 7.5 0 1 0 -15 0z" fill="url(&quot;#SvgjsLinearGradient1516&quot;)"></path><path d="M49.28 400.29L92.58 425.29L92.58 475.29L49.28 500.29L5.98 475.29L5.98 425.29zM179.19 175.29L222.49 200.29L222.49 250.29L179.19 275.29L135.88 250.29L135.88 200.29zM135.88 250.29L179.19 275.29L179.19 325.29L135.88 350.29L92.58 325.29L92.58 275.29zM179.19 325.29L222.49 350.29L222.49 400.29L179.19 425.29L135.88 400.29L135.88 350.29zM179.19 475.29L222.49 500.29L222.49 550.29L179.19 575.29L135.88 550.29L135.88 500.29zM222.49 400.29L265.79 425.29L265.79 475.29L222.49 500.29L179.19 475.29L179.19 425.29zM265.79 475.29L309.1 500.29L309.1 550.29L265.79 575.29L222.49 550.29L222.49 500.29zM309.1 -49.71L352.4 -24.71L352.4 25.29L309.1 50.29L265.79 25.29L265.79 -24.71zM309.1 100.29L352.4 125.29L352.4 175.29L309.1 200.29L265.79 175.29L265.79 125.29zM309.1 250.29L352.4 275.29L352.4 325.29L309.1 350.29L265.79 325.29L265.79 275.29zM309.1 400.29L352.4 425.29L352.4 475.29L309.1 500.29L265.79 475.29L265.79 425.29zM395.7 400.29L439 425.29L439 475.29L395.7 500.29L352.4 475.29L352.4 425.29zM482.31 -49.71L525.61 -24.71L525.61 25.29L482.31 50.29L439 25.29L439 -24.71zM525.61 25.29L568.91 50.29L568.91 100.29L525.61 125.29L482.31 100.29L482.31 50.29zM482.31 100.29L525.61 125.29L525.61 175.29L482.31 200.29L439 175.29L439 125.29zM482.31 400.29L525.61 425.29L525.61 475.29L482.31 500.29L439 475.29L439 425.29zM568.91 100.29L612.21 125.29L612.21 175.29L568.91 200.29L525.61 175.29L525.61 125.29zM568.91 250.29L612.21 275.29L612.21 325.29L568.91 350.29L525.61 325.29L525.61 275.29zM612.21 475.29L655.51 500.29L655.51 550.29L612.21 575.29L568.91 550.29L568.91 500.29zM655.51 400.29L698.82 425.29L698.82 475.29L655.51 500.29L612.21 475.29L612.21 425.29zM742.12 100.29L785.42 125.29L785.42 175.29L742.12 200.29L698.82 175.29L698.82 125.29zM785.42 175.29L828.73 200.29L828.73 250.29L785.42 275.29L742.12 250.29L742.12 200.29zM742.12 250.29L785.42 275.29L785.42 325.29L742.12 350.29L698.82 325.29L698.82 275.29zM785.42 325.29L828.73 350.29L828.73 400.29L785.42 425.29L742.12 400.29L742.12 350.29zM742.12 400.29L785.42 425.29L785.42 475.29L742.12 500.29L698.82 475.29L698.82 425.29zM828.73 -49.71L872.03 -24.71L872.03 25.29L828.73 50.29L785.42 25.29L785.42 -24.71zM872.03 175.29L915.33 200.29L915.33 250.29L872.03 275.29L828.73 250.29L828.73 200.29zM958.63 175.29L1001.94 200.29L1001.94 250.29L958.63 275.29L915.33 250.29L915.33 200.29zM958.63 475.29L1001.94 500.29L1001.94 550.29L958.63 575.29L915.33 550.29L915.33 500.29zM1001.94 -49.71L1045.24 -24.71L1045.24 25.29L1001.94 50.29L958.63 25.29L958.63 -24.71zM1001.94 250.29L1045.24 275.29L1045.24 325.29L1001.94 350.29L958.63 325.29L958.63 275.29zM1045.24 475.29L1088.54 500.29L1088.54 550.29L1045.24 575.29L1001.94 550.29L1001.94 500.29zM1088.54 -49.71L1131.84 -24.71L1131.84 25.29L1088.54 50.29L1045.24 25.29L1045.24 -24.71zM1131.84 25.29L1175.14 50.29L1175.14 100.29L1131.84 125.29L1088.54 100.29L1088.54 50.29zM1088.54 100.29L1131.84 125.29L1131.84 175.29L1088.54 200.29L1045.24 175.29L1045.24 125.29zM1131.84 175.29L1175.14 200.29L1175.14 250.29L1131.84 275.29L1088.54 250.29L1088.54 200.29zM1088.54 250.29L1131.84 275.29L1131.84 325.29L1088.54 350.29L1045.24 325.29L1045.24 275.29zM1131.84 475.29L1175.14 500.29L1175.14 550.29L1131.84 575.29L1088.54 550.29L1088.54 500.29zM1218.45 175.29L1261.75 200.29L1261.75 250.29L1218.45 275.29L1175.14 250.29L1175.14 200.29zM1218.45 325.29L1261.75 350.29L1261.75 400.29L1218.45 425.29L1175.14 400.29L1175.14 350.29zM1261.75 100.29L1305.05 125.29L1305.05 175.29L1261.75 200.29L1218.45 175.29L1218.45 125.29zM1261.75 250.29L1305.05 275.29L1305.05 325.29L1261.75 350.29L1218.45 325.29L1218.45 275.29zM1348.36 100.29L1391.66 125.29L1391.66 175.29L1348.36 200.29L1305.05 175.29L1305.05 125.29zM1391.66 475.29L1434.96 500.29L1434.96 550.29L1391.66 575.29L1348.36 550.29L1348.36 500.29zM1434.96 250.29L1478.26 275.29L1478.26 325.29L1434.96 350.29L1391.66 325.29L1391.66 275.29zM1478.26 475.29L1521.57 500.29L1521.57 550.29L1478.26 575.29L1434.96 550.29L1434.96 500.29z" stroke="rgba(6, 80, 156, 0.93)" stroke-width="2"></path></g><defs><mask id="SvgjsMask1515"><rect width="1440" height="560" fill="#ffffff"></rect></mask><linearGradient x1="220.03199999999998" y1="-220.02399999999997" x2="1219.9679999999998" y2="780.024" gradientUnits="userSpaceOnUse" id="SvgjsLinearGradient1516"><stop stop-color="rgba(158, 0, 129, 1)" offset="0"></stop><stop stop-color="rgba(7, 70, 133, 1)" offset="1"></stop></linearGradient></defs></svg>